<svg xmlns="http://www.w3.org/2000/svg" width="842" height="678.376" viewBox="0 0 842 678.376">
  <g id="Group_1" data-name="Group 1" transform="translate(0 0)">
    <ellipse id="Ellipse_1" data-name="Ellipse 1" cx="416" cy="32.5" rx="416" ry="32.5" transform="translate(10 613.376)" fill="#3f3d56"/>
    <path id="Path_1" data-name="Path 1" d="M779.369,585.5l3.9,28.593-27.293,2.6,3.9-35.091Z" fill="#a0616a"/>
    <path id="Path_2" data-name="Path 2" d="M829.7,303.812s2.6,35.091,2.6,36.391-18.2,90.977-18.2,90.977-25.993,49.387,0,48.088,18.2-46.788,18.2-46.788L859.594,357.1l-11.7-53.286Z" transform="translate(-179 -110.812)" fill="#a0616a"/>
    <path id="Path_3" data-name="Path 3" d="M693.591,585.5l-3.9,28.593,27.293,2.6-3.9-35.091Z" fill="#a0616a"/>
    <path id="Path_4" data-name="Path 4" d="M842.7,428.581l-6.5,9.1s-3.9,38.99,0,51.987,11.7,72.781,11.7,76.68,1.3,6.5,0,7.8-5.2,1.3-2.6,3.9,2.6,10.4,2.6,10.4v6.5l16.9,96.175s-10.4,11.7-2.6,11.7,36.391,0,35.091-13l-2.6-1.3s-3.9-85.778-2.6-89.677,0-11.7,0-11.7-2.6-3.9,0-5.2,2.6-11.7,2.6-11.7l11.7-79.28s10.4,53.286,16.9,58.485,5.2,18.2,5.2,18.2l5.2,114.371s-5.2,13,0,15.6,27.293,11.7,28.593-1.3,7.8-126.068,7.8-131.266-1.3-7.8,0-11.7-1.3-3.9,0-3.9-2.6-3.9-2.6-6.5V479.268s1.3-13,2.6-15.6-1.3-5.2,0-9.1-2.6-16.9-2.6-16.9l-58.485-15.6Z" transform="translate(-179 -110.812)" fill="#2f2e41"/>
    <path id="Path_5" data-name="Path 5" d="M888.187,719.706s6.5-6.5-2.6-6.5a42.3,42.3,0,0,0-16.9,3.9l-6.5,23.394s-26.644,21.444,3.248,18.845,25.344-.65,25.344-.65,9.1-2.6,10.4-5.2-2.6-40.29-2.6-40.29S894.685,723.6,888.187,719.706Z" transform="translate(-179 -110.812)" fill="#2f2e41"/>
    <path id="Path_6" data-name="Path 6" d="M944.072,719.706s-6.5-6.5,2.6-6.5a42.3,42.3,0,0,1,16.9,3.9l6.5,23.394s26.643,21.445-3.249,18.845-29.242-.65-29.242-.65-9.1-2.6-10.4-5.2,6.5-40.29,6.5-40.29S937.574,723.6,944.072,719.706Z" transform="translate(-179 -110.812)" fill="#2f2e41"/>
    <circle id="Ellipse_2" data-name="Ellipse 2" cx="33.791" cy="33.791" r="33.791" transform="translate(646.803 22.744)" fill="#a0616a"/>
    <path id="Path_7" data-name="Path 7" d="M847.9,192.041s5.2,25.993,5.2,29.892,22.094,15.6,22.094,15.6l24.694-31.192s-15.6-22.094-15.6-27.293Z" transform="translate(-179 -110.812)" fill="#a0616a"/>
    <path id="Path_8" data-name="Path 8" d="M867.392,225.832s-11.328-3.015-14.761-8.006c0,0-35.926,35.3-35.926,41.8L845.3,310.31s0,18.2,2.6,19.495,0,0,0,5.2-7.8,38.99-5.2,44.189,5.2,1.3,2.6,9.1-9.1,49.387-9.1,49.387,23.394-7.8,57.185,5.2,74.081-5.2,74.081-5.2-10.4-23.394-7.8-31.192-6.5-22.094-6.5-22.094l-6.5-119.569s9.1-53.286,2.6-55.886l-13-5.2-41.62-5.115S884.288,224.533,867.392,225.832Z" transform="translate(-179 -110.812)" fill="#d0cde1"/>
    <path id="Path_9" data-name="Path 9" d="M829.7,250.526l-13,9.1s-6.5,19.495,0,28.593,9.1,22.094,9.1,22.094l25.993-2.6Z" transform="translate(-179 -110.812)" fill="#d0cde1"/>
    <path id="Path_10" data-name="Path 10" d="M833.794,131.636l-5.862-2.347s12.256-13.493,29.308-12.32l-4.8-5.28s11.723-4.693,22.38,7.626c5.6,6.476,12.084,14.089,16.125,22.664h6.277l-2.62,5.769,9.17,5.769-9.412-1.036a31.921,31.921,0,0,1-.89,14.94l.252,4.56s-10.91-16.879-10.91-19.226v5.867s-5.862-5.28-5.862-8.8l-3.2,4.107-1.6-6.453-19.716,6.453,3.2-5.28-12.256,1.76,4.8-6.453s-13.854,7.626-14.387,14.08-7.46,14.666-7.46,14.666l-3.2-5.867S818.341,140.435,833.794,131.636Z" transform="translate(-179 -110.812)" fill="#2f2e41"/>
    <rect id="Rectangle_1" data-name="Rectangle 1" width="516.463" height="362.798" transform="translate(146.169 282.832)" fill="#f2f2f2"/>
    <rect id="Rectangle_2" data-name="Rectangle 2" width="129.678" height="226.374" transform="translate(189.645 421.256)" fill="#3f3d56"/>
    <rect id="Rectangle_3" data-name="Rectangle 3" width="34.932" height="32.563" transform="translate(213.632 434.837)" fill="#f2f2f2"/>
    <rect id="Rectangle_4" data-name="Rectangle 4" width="34.932" height="32.563" transform="translate(260.405 434.837)" fill="#f2f2f2"/>
    <rect id="Rectangle_5" data-name="Rectangle 5" width="34.932" height="33.748" transform="translate(213.632 479.241)" fill="#f2f2f2"/>
    <rect id="Rectangle_6" data-name="Rectangle 6" width="34.932" height="33.748" transform="translate(260.405 479.241)" fill="#f2f2f2"/>
    <circle id="Ellipse_3" data-name="Ellipse 3" cx="8.245" cy="8.245" r="8.245" transform="translate(294.587 541.439)" fill="#639dff"/>
    <rect id="Rectangle_7" data-name="Rectangle 7" width="256.357" height="215.13" transform="translate(362.799 399.767)" fill="#3f3d56"/>
    <path id="Path_11" data-name="Path 11" d="M716.6,351.134H92.2l41.632-87.042,9.317-19.489,12.189-25.486,9.317-19.489,10.8-22.577H667.407l6.379,22.577,5.509,19.489,7.2,25.486,5.509,19.489Z" fill="#3f3d56"/>
    <rect id="Rectangle_38" data-name="Rectangle 38" width="4.497" height="47.973" transform="translate(488.729 399.767)" fill="#f2f2f2"/>
    <circle id="Ellipse_4" data-name="Ellipse 4" cx="7.496" cy="7.496" r="7.496" transform="translate(483.481 440.244)" fill="#f2f2f2"/>
    <path id="Path_12" data-name="Path 12" d="M679.295,219.117H155.337l9.317-19.489H673.786Z" fill="#639dff"/>
    <path id="Path_13" data-name="Path 13" d="M692.008,264.092H133.831l9.317-19.489H686.5Z" fill="#639dff"/>
    <path id="Path_14" data-name="Path 14" d="M925.877,262.223s-7.526,19.353-5.954,38.5a20.293,20.293,0,0,0,3.355,9.587h0l-92.2,43.774s-41.662,4.313-31.264,22.509,48.088-9.1,48.088-9.1,98.775-14.3,106.573-28.593,13-74.081,13-74.081Z" transform="translate(-179 -110.812)" fill="#a0616a"/>
    <path id="Path_15" data-name="Path 15" d="M929.776,208.937h19.495s14.3,2.6,18.2,28.593,7.8,32.492,3.9,32.492-50.687-1.3-50.687-2.6S929.776,208.937,929.776,208.937Z" transform="translate(-179 -110.812)" fill="#d0cde1"/>
    <circle id="Ellipse_5" data-name="Ellipse 5" cx="100" cy="100" r="100" transform="translate(0 286.376)" fill="#639dff"/>
    <circle id="Ellipse_6" data-name="Ellipse 6" cx="86" cy="86" r="86" transform="translate(14 300.376)" fill="#5c3636" opacity="0.1"/>
    <g id="Group_2" data-name="Group 2" transform="translate(-179 28)">
      <rect id="Rectangle_39" data-name="Rectangle 39" width="21" height="85" rx="10.5" transform="translate(322 348) rotate(90)" fill="#fff"/>
      <rect id="Rectangle_40" data-name="Rectangle 40" width="21" height="85" rx="10.5" transform="translate(269 316)" fill="#fff"/>
    </g>
  </g>
</svg>
