<svg xmlns="http://www.w3.org/2000/svg" xmlns:xlink="http://www.w3.org/1999/xlink" width="1025" height="818" viewBox="0 0 1025 818">
  <defs>
    <linearGradient id="linear-gradient" x1="0.5" y1="1" x2="0.5" gradientUnits="objectBoundingBox">
      <stop offset="0" stop-color="gray" stop-opacity="0.251"/>
      <stop offset="0.54" stop-color="gray" stop-opacity="0.122"/>
      <stop offset="1" stop-color="gray" stop-opacity="0.102"/>
    </linearGradient>
    <linearGradient id="linear-gradient-2" x1="0.5" y1="1" x2="0.5" y2="0" xlink:href="#linear-gradient"/>
  </defs>
  <g id="Group_2543" data-name="Group 2543" transform="translate(-3094 -2058.007)">
    <g id="Group_2544" data-name="Group 2544">
      <rect id="Rectangle_338" data-name="Rectangle 338" width="1025" height="818" rx="30" transform="translate(3094 2058.007)" fill="#C8E7F8"/>
      <g id="Art" transform="translate(3215.875 2190.32)">
        <ellipse id="Ellipse_1" data-name="Ellipse 1" cx="68.886" cy="11.064" rx="68.886" ry="11.064" transform="translate(190.496 530.928)" fill="#0F00FF" opacity="0.1"/>
        <ellipse id="Ellipse_2" data-name="Ellipse 2" cx="85.959" cy="11.064" rx="85.959" ry="11.064" transform="translate(547.876 531.239)" fill="#0F00FF" opacity="0.1"/>
        <path id="Path_3" data-name="Path 3" d="M60.47,396.83h71.749v97.793h-66.5c-.177,1-.346,2.015-.53,3.026h67.026v78.868c-.12-.035-.226-.078-.339-.12-1.895-.749-3.775-1.541-5.656-2.389l-1.2-.545q-2.828-1.336-5.656-2.828c-.657-.346-1.315-.707-1.965-1.075a117.649,117.649,0,0,1-28.193-22.029c-.24-.233-.467-.481-.707-.707-1.145-1.244-2.269-2.5-3.358-3.789l-1.2-1.414c-1.287-1.576-2.531-3.2-3.74-4.836-.177-.24-.346-.481-.53-.707a105.25,105.25,0,0,1-12.16-21.986c-.1-.233-.184-.488-.276-.707q-1.456-3.747-2.58-7.564c-.325-1.068-.636-2.121-.9-3.231-.1-.325-.184-.643-.262-.961C59.474,485.956,59,469.675,59,453.507v-5.656c0-6.539.078-13.121.191-19.7,0-1.7.071-3.4.106-5.111q.148-6.511.424-13.022c.042-1.209.1-2.411.163-3.613a20.463,20.463,0,0,1,.106-2.078C60.159,401.814,60.3,399.318,60.47,396.83Z" transform="translate(-51.026 -157.733)" fill="#0F00FF" opacity="0.1"/>
        <path id="Path_4" data-name="Path 4" d="M146.256,222.191H106.9a298.336,298.336,0,0,1,20.933-28.816c5.846-7.183,12.018-14.181,18.423-20.926Z" transform="translate(-65.062 -91.98)" fill="#0F00FF" opacity="0.1"/>
        <path id="Path_5" data-name="Path 5" d="M132.923,247.09V349.924H61.4c0-.3.049-.6.071-.9.064-.813.127-1.626.2-2.432.078-.947.163-1.9.255-2.828s.191-2.057.3-3.082.205-2.064.325-3.089.226-2.05.353-3.068.24-2.05.375-3.068c.106-.848.219-1.69.332-2.538.163-1.195.332-2.4.516-3.584a3.305,3.305,0,0,1,.078-.53,244.539,244.539,0,0,1,5.267-25.818,190.937,190.937,0,0,1,8.872-26.157,196.364,196.364,0,0,1,13.347-25.7Z" transform="translate(-51.729 -113.853)" fill="#0F00FF" opacity="0.1"/>
        <path id="Path_6" data-name="Path 6" d="M186.8,297.713v97.8H340.047v-97.8Zm0,100.819v83.986c.877.184,1.746.361,2.609.509,1.174.226,2.34.431,3.535.608.226.035.46.071.707.092.467.078.947.141,1.414.2,1.181.163,2.354.3,3.535.4.558.057,1.124.106,1.69.148l1.364.106h0c.742.057,1.478.1,2.206.12.452,0,.9.042,1.372.057h5.041c.608,0,1.216,0,1.817-.057h.042a9.526,9.526,0,0,0,1.265-.057,2.956,2.956,0,0,0,.353,0,7.307,7.307,0,0,0,1.046-.049h.247l2.368-.184c.778-.071,1.562-.163,2.354-.247l1.612-.191a141,141,0,0,0,19.406-4.129c14.295-3.987,28.278-9.565,42.566-13.651,18.473-5.267,38.882-7.854,56.733-1.414V398.532Zm153.247-209.7V58.635a197.007,197.007,0,0,0-49.791,5.839c-38.8,9.749-73.622,30.894-103.456,57.9v66.454h7.692v3.019H186.8V294.695H340.047V191.854H226.071v-3.019Zm196.837-43.98a63.475,63.475,0,0,1-27.776-8.073C492.6,127.8,479.416,113.94,464.683,102.24c-30.611-24.369-68.575-39.073-107.521-42.721V188.835H575.929l.544-.573Zm19.929-3.535,21.131,23.188V135.241c-7.077.877-13.277,2.962-21.1,6.052Zm21.131,362.053V398.532H532.918c-.12-.445-.24-.9-.382-1.35.134.452.247.9.375,1.35H357.19v75.821c1.668,1.237,3.316,2.538,4.949,3.86h0c1.76,1.414,3.5,2.906,5.246,4.369l1.76,1.456c.841.707,1.69,1.414,2.545,2.078q2.545,2.064,5.14,4.072c.855.707,1.732,1.343,2.6,2.008a354.347,354.347,0,0,0,43.57,28.5q5.111,2.828,10.315,5.521c2.312,1.181,4.638,2.354,6.971,3.492q5.26,2.566,10.6,4.949h0a389.422,389.422,0,0,0,103.215,30.067q11.87,1.753,23.831,2.757V503.367h.707ZM357.19,191.854V294.695H577.972V191.854Zm0,105.859v97.8H577.972v-97.8Zm237.919-162.6v32.647l26.97-29.593q-13.4-2.163-26.97-3.089Zm0,162.635v97.765H809.847v-97.8ZM809.062,511.136l.756-112.6H595.109V568.6a385.064,385.064,0,0,0,41.5-.495h.24q9.9-.622,19.7-1.81h.148a362.838,362.838,0,0,0,101.236-27.013m93.318-225.469c-.806-1.9-1.647-3.789-2.5-5.656-1.6-3.535-3.287-6.971-5.026-10.406H826.969v97.758H869.33c-.021-27.684-7.027-55.963-18.056-81.731Zm-24.284,84.75V495.42a138.747,138.747,0,0,0,29.275-39.483c8.731-18.013,12.725-37.518,13.05-57.384Zm0-129.316V294.7h15.185a275.717,275.717,0,0,0-15.164-25.486ZM681.336,154.3c-1.117-.424-2.234-.855-3.358-1.273a306.539,306.539,0,0,0-36.274-10.9l-41.272,45.295h0l-.792.841.53.58H747.062a314.175,314.175,0,0,0-65.7-34.577Zm70.031,37.589H598.121l-3.012,2.757V294.695H809.875V246.233a305.968,305.968,0,0,0-58.486-54.379Z" transform="translate(-88.477 -58.624)" fill="#3facff" opacity="0.1"/>
        <path id="Path_7" data-name="Path 7" d="M132.923,320.46v50.964H61.4c0-.3.049-.6.071-.9.064-.813.127-1.626.2-2.432.078-.947.163-1.9.255-2.828s.191-2.057.3-3.082.205-2.064.325-3.089.226-2.05.353-3.068.24-2.05.375-3.068c.106-.848.219-1.69.332-2.538.163-1.195.332-2.4.516-3.584a3.3,3.3,0,0,1,.078-.53,244.536,244.536,0,0,1,5.267-25.818Z" transform="translate(-51.729 -135.353)" fill="#0F00FF" opacity="0.1"/>
        <path id="Path_8" data-name="Path 8" d="M60.47,396.83h71.749v97.793h-66.5c-.177,1-.346,2.015-.53,3.026h67.026v78.868c-.12-.035-.226-.078-.339-.12-1.895-.749-3.775-1.541-5.656-2.389l-1.2-.545q-2.828-1.336-5.656-2.828c-.657-.346-1.315-.707-1.965-1.075a117.649,117.649,0,0,1-28.193-22.029c-.24-.233-.467-.481-.707-.707-1.145-1.244-2.269-2.5-3.358-3.789l-1.2-1.414c-1.287-1.576-2.531-3.2-3.74-4.836-.177-.24-.346-.481-.53-.707a105.25,105.25,0,0,1-12.16-21.986c-.1-.233-.184-.488-.276-.707q-1.456-3.747-2.58-7.564c-.325-1.068-.636-2.121-.9-3.231-.1-.325-.184-.643-.262-.961C59.474,485.956,59,469.675,59,453.507v-5.656c0-6.539.078-13.121.191-19.7,0-1.7.071-3.4.106-5.111q.148-6.511.424-13.022c.042-1.209.1-2.411.163-3.613a20.463,20.463,0,0,1,.106-2.078C60.159,401.814,60.3,399.318,60.47,396.83Z" transform="translate(-51.026 -157.733)" fill="#3facff" opacity="0.1"/>
        <path id="Path_9" data-name="Path 9" d="M193.508,196.913v88.115H139.56V196.913h7.692V167.08h31.573v29.833Z" transform="translate(-41.237 -48.957)" fill="#0F00FF" opacity="0.1"/>
        <rect id="Rectangle_6" data-name="Rectangle 6" width="53.941" height="97.793" transform="translate(98.33 239.09)" fill="#0F00FF" opacity="0.1"/>
        <path id="Path_10" data-name="Path 10" d="M186.8,539.44h53.948v81.3a140.785,140.785,0,0,1-19.406,4.122l-1.612.2c-.792.092-1.577.17-2.354.247s-1.584.134-2.368.184h-.247c-.339,0-.707.042-1.039.049h-.361c-.424,0-.848.042-1.272.057h0c-.6.035-1.2.042-1.817.05h-5.005l-1.364-.05c-.707,0-1.47-.078-2.206-.127h0l-1.357-.1-1.69-.156c-1.188-.106-2.368-.24-3.535-.4l-1.414-.2-.707-.1c-1.181-.184-2.347-.382-3.535-.608-.87-.148-1.732-.332-2.609-.509Z" transform="translate(-88.477 -199.524)" fill="#0F00FF" opacity="0.1"/>
        <rect id="Rectangle_7" data-name="Rectangle 7" width="44.482" height="98.514" transform="translate(445.014 137.55)" fill="#0F00FF" opacity="0.1"/>
        <path id="Path_11" data-name="Path 11" d="M601.369,338.19v97.8H380.58V393.806h117.6v24.885h58.7v-80.5Z" transform="translate(-111.866 -99.1)" fill="#0F00FF" opacity="0.1"/>
        <path id="Path_12" data-name="Path 12" d="M649.309,643.736H648.6v64.156q-11.948-1.011-23.824-2.75a389.434,389.434,0,0,1-103.258-30.13q-14.231-6.4-27.882-13.983a355.8,355.8,0,0,1-43.577-28.5q-5.2-3.987-10.272-8.158c-2.34-1.93-4.666-3.91-7.02-5.832-1.633-1.322-3.28-2.623-4.949-3.867V538.88H603.534c-.12-.453-.24-.9-.368-1.35.134.445.262.9.382,1.35H648.6V643.693C648.843,643.7,649.076,643.722,649.309,643.736Z" transform="translate(-159.106 -198.965)" fill="#0F00FF" opacity="0.1"/>
        <path id="Path_13" data-name="Path 13" d="M892.205,227.956H863.22v-9.007h12.994V192.12q1.69.615,3.365,1.265v25.564h12.626Z" transform="translate(-286.698 -97.744)" fill="#0F00FF" opacity="0.1"/>
        <path id="Path_14" data-name="Path 14" d="M933.068,349.924h-142.3l.049.035-.064-.035h-26.4V251.409h7.479v72.816h34.182V281.1h28.236V247.09h28.985v34.04h28.236v43.124h41.59Z" transform="translate(-257.728 -113.853)" fill="#0F00FF" opacity="0.1"/>
        <path id="Path_15" data-name="Path 15" d="M764.36,396.82v97.8H933.068v-97.8Zm214.5,212.921.233-77.412h-46.03V497.688H764.36V667.711a385.1,385.1,0,0,0,41.5-.495h.24q9.9-.622,19.7-1.81h.148a362.834,362.834,0,0,0,101.236-27.013" transform="translate(-257.728 -157.73)" fill="#0F00FF" opacity="0.1"/>
        <path id="Path_16" data-name="Path 16" d="M1095.339,539.44H1134.7c-.347,19.858-4.334,39.363-13.057,57.376A138.79,138.79,0,0,1,1092.37,636.3V574.088h2.969Z" transform="translate(-353.849 -199.524)" fill="#0F00FF" opacity="0.1"/>
        <path id="Path_17" data-name="Path 17" d="M1135.947,501.281H1096.57V419.55h21.308C1128.906,445.318,1135.912,473.6,1135.947,501.281Z" transform="translate(-355.08 -164.391)" fill="#0F00FF" opacity="0.1"/>
        <rect id="Rectangle_8" data-name="Rectangle 8" width="23.831" height="30.887" transform="translate(465.671 164.937)" fill="#0F00FF" opacity="0.1"/>
        <rect id="Rectangle_9" data-name="Rectangle 9" width="23.831" height="7.112" transform="translate(465.671 228.959)" fill="#0F00FF" opacity="0.1"/>
        <rect id="Rectangle_10" data-name="Rectangle 10" width="23.831" height="20.749" transform="translate(465.671 239.09)" fill="#0F00FF" opacity="0.1"/>
        <rect id="Rectangle_11" data-name="Rectangle 11" width="23.831" height="30.887" transform="translate(465.671 292.981)" fill="#0F00FF" opacity="0.1"/>
        <rect id="Rectangle_12" data-name="Rectangle 12" width="23.831" height="30.887" transform="translate(465.671 357.003)" fill="#0F00FF" opacity="0.1"/>
        <path id="Path_18" data-name="Path 18" d="M730.244,677.874a3.911,3.911,0,0,1,.707.042h-.707v7.176H706.42V654.17h23.824Z" transform="translate(-240.749 -233.145)" fill="#0F00FF" opacity="0.1"/>
        <path id="Path_19" data-name="Path 19" d="M730.244,744.71v23.86q-11.947-1.011-23.824-2.75V744.71Z" transform="translate(-240.749 -259.678)" fill="#0F00FF" opacity="0.1"/>
        <rect id="Rectangle_13" data-name="Rectangle 13" width="102.134" height="2.269" transform="translate(268.714 334.621)" fill="#0F00FF" opacity="0.1"/>
        <rect id="Rectangle_14" data-name="Rectangle 14" width="102.134" height="8.696" transform="translate(268.714 339.909)" fill="#0F00FF" opacity="0.1"/>
        <rect id="Rectangle_15" data-name="Rectangle 15" width="102.134" height="13.984" transform="translate(268.714 377.109)" fill="#0F00FF" opacity="0.1"/>
        <path id="Path_20" data-name="Path 20" d="M532,652.15v13.984H452.109q-5.2-3.973-10.279-8.158c-2.34-1.93-4.659-3.909-7.02-5.825Z" transform="translate(-161.155 -232.554)" fill="#0F00FF" opacity="0.1"/>
        <path id="Path_21" data-name="Path 21" d="M557.229,712.231V726.2H548.8q-14.217-6.412-27.875-13.991Z" transform="translate(-186.389 -250.154)" fill="#0F00FF" opacity="0.1"/>
        <rect id="Rectangle_16" data-name="Rectangle 16" width="20.106" height="20.106" transform="translate(548.138 248.57)" fill="#0F00FF" opacity="0.1"/>
        <rect id="Rectangle_17" data-name="Rectangle 17" width="20.106" height="20.106" transform="translate(112.809 154.891)" fill="#0F00FF" opacity="0.1"/>
        <rect id="Rectangle_18" data-name="Rectangle 18" width="20.106" height="20.106" transform="translate(112.809 201.593)" fill="#0F00FF" opacity="0.1"/>
        <rect id="Rectangle_19" data-name="Rectangle 19" width="20.106" height="20.106" transform="translate(112.809 248.294)" fill="#0F00FF" opacity="0.1"/>
        <rect id="Rectangle_20" data-name="Rectangle 20" width="20.106" height="20.106" transform="translate(112.809 294.989)" fill="#0F00FF" opacity="0.1"/>
        <rect id="Rectangle_21" data-name="Rectangle 21" width="20.106" height="20.106" transform="translate(112.809 341.69)" fill="#0F00FF" opacity="0.1"/>
        <rect id="Rectangle_22" data-name="Rectangle 22" width="20.106" height="20.106" transform="translate(112.809 388.392)" fill="#0F00FF" opacity="0.1"/>
        <rect id="Rectangle_23" data-name="Rectangle 23" width="20.106" height="20.106" transform="translate(624.892 248.57)" fill="#0F00FF" opacity="0.1"/>
        <rect id="Rectangle_24" data-name="Rectangle 24" width="20.106" height="20.106" transform="translate(548.138 298.163)" fill="#0F00FF" opacity="0.1"/>
        <rect id="Rectangle_25" data-name="Rectangle 25" width="20.106" height="20.106" transform="translate(624.892 298.163)" fill="#0F00FF" opacity="0.1"/>
        <rect id="Rectangle_26" data-name="Rectangle 26" width="20.106" height="20.106" transform="translate(548.138 347.749)" fill="#0F00FF" opacity="0.1"/>
        <rect id="Rectangle_27" data-name="Rectangle 27" width="20.106" height="20.106" transform="translate(624.892 347.749)" fill="#0F00FF" opacity="0.1"/>
        <rect id="Rectangle_28" data-name="Rectangle 28" width="20.106" height="20.106" transform="translate(548.138 397.342)" fill="#0F00FF" opacity="0.1"/>
        <rect id="Rectangle_29" data-name="Rectangle 29" width="20.106" height="20.106" transform="translate(624.892 397.342)" fill="#0F00FF" opacity="0.1"/>
        <rect id="Rectangle_30" data-name="Rectangle 30" width="20.106" height="20.106" transform="translate(548.138 446.934)" fill="#0F00FF" opacity="0.1"/>
        <rect id="Rectangle_31" data-name="Rectangle 31" width="20.106" height="20.106" transform="translate(624.892 446.934)" fill="#0F00FF" opacity="0.1"/>
        <path id="Path_22" data-name="Path 22" d="M775.83,715.3V702.33h20.1v11.12Z" transform="translate(-227.692 -205.81)" fill="#0F00FF" opacity="0.1"/>
        <path id="Path_23" data-name="Path 23" d="M65.24,357v11.5h68.808V357ZM72.1,367.781H66.484V357.707H72.14Zm6.85,0H73.292V357.707h5.656Zm6.836,0H80.128V357.707h5.656Zm6.85,0H86.986V357.707h5.656Zm6.843,0H93.822V357.707h5.656Zm6.85,0h-5.656V357.707h5.656Zm6.85,0h-5.656V357.707h5.656Zm6.843,0h-5.656V357.707h5.656Zm6.843,0H121.21V357.707h5.656Zm6.843,0h-5.656V357.707h5.656Z" transform="translate(-52.854 -146.061)" fill="#0F00FF" opacity="0.1"/>
        <path id="Path_24" data-name="Path 24" d="M65.24,404.34v11.5h68.808v-11.5ZM72.1,415.114H66.484V405.068H72.14Zm6.85,0H73.292V405.068h5.656Zm6.836,0H80.128V405.068h5.656Zm6.85,0H86.986V405.068h5.656Zm6.843,0H93.822V405.068h5.656Zm6.85,0h-5.656V405.068h5.656Zm6.85,0h-5.656V405.068h5.656Zm6.843,0h-5.656V405.068h5.656Zm6.843,0H121.21V405.068h5.656Zm6.843,0h-5.656V405.068h5.656Z" transform="translate(-52.854 -159.934)" fill="#0F00FF" opacity="0.1"/>
        <path id="Path_25" data-name="Path 25" d="M65.24,451.7v11.523h68.808V451.7ZM72.1,462.474H66.484V452.421H72.14Zm6.85,0H73.292V452.421h5.656Zm6.836,0H80.128V452.421h5.656Zm6.85,0H86.986V452.421h5.656Zm6.843,0H93.822V452.421h5.656Zm6.85,0h-5.656V452.421h5.656Zm6.85,0h-5.656V452.421h5.656Zm6.843,0h-5.656V452.421h5.656Zm6.843,0H121.21V452.421h5.656Zm6.843,0h-5.656V452.421h5.656Z" transform="translate(-52.854 -173.813)" fill="#0F00FF" opacity="0.1"/>
        <path id="Path_26" data-name="Path 26" d="M65.24,499.06v11.488h68.808V499.06ZM72.1,509.834H66.484v-10.06H72.14Zm6.85,0H73.292v-10.06h5.656Zm6.836,0H80.128v-10.06h5.656Zm6.85,0H86.986v-10.06h5.656Zm6.843,0H93.822v-10.06h5.656Zm6.85,0h-5.656v-10.06h5.656Zm6.85,0h-5.656v-10.06h5.656Zm6.843,0h-5.656v-10.06h5.656Zm6.843,0H121.21v-10.06h5.656Zm6.843,0h-5.656v-10.06h5.656Z" transform="translate(-52.854 -187.691)" fill="#0F00FF" opacity="0.1"/>
        <path id="Path_27" data-name="Path 27" d="M65.66,546.41c.276,1.082.587,2.163.912,3.231v-2.51h5.656v10.053H69.2c.092.233.184.488.276.707h64.693V546.41Zm13.432,10.774H73.437V547.131h5.656Zm6.836,0H80.273V547.131h5.656Zm6.85,0h-5.67V547.131h5.656Zm6.843,0H93.966V547.131h5.656Zm6.85,0h-5.656V547.131h5.656Zm6.85,0h-5.656V547.131h5.656Zm6.843,0h-5.656V547.131h5.656Zm6.843,0h-5.656V547.131h5.656Zm6.843,0H128.2V547.131h5.656Z" transform="translate(-52.977 -201.567)" fill="#0F00FF" opacity="0.1"/>
        <path id="Path_28" data-name="Path 28" d="M88.26,593.77c.177.226.346.481.53.707h3.74v4.828c.4.481.8.962,1.209,1.414v-6.271h5.656v10.088H97.1c.226.233.445.481.707.707h43V593.77Zm17.964,10.767h-5.656V594.491h5.656Zm6.85,0h-5.656V594.491h5.656Zm6.85,0h-5.656V594.491h5.656Zm6.843,0h-5.656V594.491h5.656Zm6.843,0h-5.656V594.491h5.656Zm6.843,0H134.8V594.491h5.656Z" transform="translate(-59.6 -215.445)" fill="#0F00FF" opacity="0.1"/>
        <path id="Path_29" data-name="Path 29" d="M141.65,641.12c.643.368,1.3.707,1.965,1.075v-.354h5.656v3.181l1.2.558v-3.74h5.656v6.115a1.771,1.771,0,0,0,.339.127V641.12Z" transform="translate(-75.246 -229.321)" fill="#0F00FF" opacity="0.1"/>
        <path id="Path_30" data-name="Path 30" d="M624.721,348.661ZM581.172,557.311ZM535.736,451.148c.134.452.247.9.375,1.35h0C536,452.053,535.878,451.6,535.736,451.148Zm88.984-102.509Zm-427-105.859V245.8H229.3V242.78ZM581.172,557.311ZM535.736,451.148c.134.452.247.9.375,1.35h0C536,452.053,535.878,451.6,535.736,451.148Zm88.984-102.509ZM581.172,557.29ZM535.736,451.148c.134.452.247.9.375,1.35h0C536,452.053,535.878,451.6,535.736,451.148Z" transform="translate(-91.677 -112.59)" fill="#0F00FF" opacity="0.1"/>
        <path id="Path_31" data-name="Path 31" d="M446.357,373.789s-2.785-.389-2.785-4.447-1.994-11.636-1.994-11.636h0c0-.035-1.725-13.2-4.107-15.291s-5.444-14.379-5.444-14.379-.523-6.667-1.591-8.1-2.51-4.949-4.638-9.961-11-8.483-11-8.483-16.041-9.3-20.587-12.336h0a6.97,6.97,0,0,1-1.152-.87c-.792-1.039-4.242-1.06-4.242-1.06a69.516,69.516,0,0,1-.82-7.26,5.527,5.527,0,0,0-.035-.763,24.461,24.461,0,0,0,10.753-13.3c.085-.269.156-.551.233-.82a2.3,2.3,0,0,0,1.379-1.244,25.949,25.949,0,0,1,.926-2.828c.594-1,1.725-1.541,2.616-2.3,2.248-1.909,2.828-5.125,2.722-8.052-.071-2.368-.452-4.758-.3-7.112l.042-.594c.042-.353.092-.707.156-1.046.346-1.753,1.1-3.408,1.527-5.147a6.621,6.621,0,0,0-.523-5.2c-1.449-2.2-4.468-2.637-7.119-2.863-3-.254-5.691.078-7.614-2.418a27.146,27.146,0,0,0-3.026-3.655c-.4-.368-4.242-2.715-4.242-2.87a17.186,17.186,0,0,0-11.983-.919c-1.994.58-3.874,1.527-5.9,2-4.362,1.032-9.381-.085-13.086,2.411-2.064,1.414-3.3,3.662-4.461,5.854q-1.414,2.708-2.87,5.408a35.035,35.035,0,0,0-3.81,9.254,14.692,14.692,0,0,0-.254,2.163h0v1.152a3.8,3.8,0,0,0,.042.707c.042.219.035.29.057.438s.057.481.1.707.127.622.212.933c.035.134.085.262.127.389.071.24.156.474.247.707.049.12.1.247.155.368a6.609,6.609,0,0,0,.361.707c.057.1.1.191.156.283a9.4,9.4,0,0,0,.65.947c1.513,1.888,3.74,3.089,5.387,4.857v.792a24.2,24.2,0,0,0,11.014,19.76c0,.269.035.544.049.813a40.458,40.458,0,0,1-.078,6.3,2.969,2.969,0,0,0-2.347-1.046,3.385,3.385,0,0,0-.9.078l-.064-.049h0v.064c-1.555.382-3.471,2-5.3,6.6,0,0-5.571,6.278-9.813,6.016s-14.98,6.532-14.98,6.532-10.477,6.8-12.725,13.729a96.74,96.74,0,0,1-4.51,11.509L298.01,355.9h0l-2.39,21.173s1.322,9.417,1.06,10.852,5.436,14.379,5.436,14.379,18.826,33.078,26.518,34.775l.551-.389a4.507,4.507,0,0,0,1.039.389l1.583-1.117a17.252,17.252,0,0,1-.12,3.733c-1.06,3.266.4,24.581,2.248,28.759s1.195,58.96,1.195,58.96l-.262,4.836a2.05,2.05,0,0,0,.064.424l-.064,1.145.191.1a13.618,13.618,0,0,1-.191,4.6c-.665,2.121-.933,8.116-.933,8.116s-5.3,33.849-2.785,40.65,4.645,14.252,4.645,14.252,2.651,8.483.127,9.933-9.7,3.881-8.222,7.416c1.343,3.266,6.44,12.018,7.2,13.3l-.064.672L333.8,644.122a14.142,14.142,0,0,0,1.195,4.3c1.138,2.453,3.351,5,7.557,4.722.707-.049,1.527-.134,2.319-.24a100.211,100.211,0,0,0,17.179-4.468,7.005,7.005,0,0,1-1.343-1.11h0a3.881,3.881,0,0,1-1.181-2.828c.113-2.05-3.726-11.82-4.68-14.224-.148-.346-.226-.544-.226-.544s8.752-9.148,7.3-17.257c0,0-9.685-5.656-6.5-8.759s8.886-12.018,8.886-12.018.262-33.333,0-38.31a41.219,41.219,0,0,1,.488-10.343c.106-.516.233-1.018.368-1.513a92.3,92.3,0,0,0,13.319,1.011c1.626,0,3.28,0,4.949-.1q0,.707.064,1.527c.368,8.257,1.053,22.736,1.612,28.116.792,7.713,5.168,28.5,5.168,28.5s-8.349,5.359,1.456,18.565c0,0,0,4.786-.65,5.479h0a59.913,59.913,0,0,0-1.675,6.9c-.41,2.488-.58,5.005.085,6.313,1.591,3.125,11.135,2.87,11.135,2.87h0l.233-.042a13.68,13.68,0,0,1,10.1,3.047c3.627,2.913,17.391,1.633,24.842.707,2.92-.368,4.871-.707,4.871-.707a2.828,2.828,0,0,0,.1-1.018h0c-.078-1.831-1.513-5.846-11.241-9.431,0,0-9.148-6.15-9.021-11.509h-1.251a9.987,9.987,0,0,1,1.266,0s-3.584-13.079-2.121-14.139-2.92-15.553-2.92-15.553-2.51-24.319-2.644-26.023a14.846,14.846,0,0,1,.657-4.312l-.657-13.333s-.127-4.433,0-5.875a29.347,29.347,0,0,0-.3-3.74c-.064-.495-.127-1.011-.2-1.52,3.429-.87,5.656-1.676,5.656-1.676l-.4-46.412c2.913-5.656,3.45-18.063,3.436-26.864,0-5.656-.254-9.841-.254-9.841l3.98-6.5s.919-7.776-.537-9.48a1.632,1.632,0,0,1,.177-2.227,7.4,7.4,0,0,1,.87-.594s-.042-.064-.092-.155a7.03,7.03,0,0,1,.884-.629s-1.414-2.192-.148-3.118c1.188.806,2.248,1.414,3.054,1.909-.057.516-.113.813-.113.813l.339-.707c.778.438,1.251.707,1.251.707s6.235-12.421,6.1-14.252,4.242-9.544,4.242-9.544.53-4.051,2.92-5.748,1.852-13.991,1.852-13.991.664-6.4,2.255-9.021S446.357,373.789,446.357,373.789Zm-119.306-5.451.12,2.962-1.216-1.958Z" transform="translate(-120.366 -105.375)" fill="url(#linear-gradient)"/>
        <path id="Path_32" data-name="Path 32" d="M479.978,506.024l-1.527,6.5s-12.23-6.242-14.436-14.174,3.69-10.944,3.69-10.944l11.4,4.828Z" transform="translate(-169.568 -184.277)" fill="#fff"/>
        <path id="Path_33" data-name="Path 33" d="M479.978,506.024l-1.527,6.5s-12.23-6.242-14.436-14.174,3.69-10.944,3.69-10.944l11.4,4.828Z" transform="translate(-169.568 -184.277)" opacity="0.1"/>
        <path id="Path_34" data-name="Path 34" d="M378.24,816.174s-11.311,4.157-19.088,4.68c-4.129.276-6.3-2.255-7.416-4.694a14.211,14.211,0,0,1-1.166-4.277l1.011-11.205.537-5.967,16.522-4.291,2.34,7.154.219.544c.94,2.389,4.708,12.11,4.6,14.139a3.86,3.86,0,0,0,1.159,2.793A6.717,6.717,0,0,0,378.24,816.174Z" transform="translate(-136.469 -273.073)" fill="#fff"/>
        <path id="Path_35" data-name="Path 35" d="M477.952,810.169a2.827,2.827,0,0,1-.1,1.011s-24.192,4.037-29.141,0a13.107,13.107,0,0,0-10.18-2.983s-9.36.254-10.922-2.828c-.65-1.294-.481-3.8-.078-6.278a59.793,59.793,0,0,1,1.64-6.865l.375-.3,2.227-1.789,26.072-.771h.2c-.127,5.33,8.851,11.445,8.851,11.445C476.432,804.35,477.839,808.345,477.952,810.169Z" transform="translate(-158.917 -272.765)" fill="#fff"/>
        <path id="Path_36" data-name="Path 36" d="M477.954,814.2a2.883,2.883,0,0,1-.106,1.011s-24.185,4.037-29.134,0a13.107,13.107,0,0,0-10.173-2.983s-9.367.255-10.922-2.828c-.651-1.3-.488-3.8-.085-6.278,3.605.361,9.3,1.258,11.53,3.4,3.379,3.259,9.106,6.511,12.619,6.766C454.433,813.463,470.884,813.986,477.954,814.2Z" transform="translate(-158.919 -276.794)" opacity="0.1"/>
        <path id="Path_37" data-name="Path 37" d="M378.727,826.4s-11.311,4.157-19.088,4.68c-4.129.276-6.3-2.255-7.409-4.7,2.877.969,6.872,1.987,8.971,1.053,2.488-1.1,11.311-1.817,16.26-2.121A6.948,6.948,0,0,0,378.727,826.4Z" transform="translate(-136.955 -283.297)" opacity="0.1"/>
        <path id="Path_38" data-name="Path 38" d="M405.654,335.417c-9.332-3.627-21.336-15.61-18.338-21.209a12.527,12.527,0,0,0,1.166-4.5,41.054,41.054,0,0,0,.085-6.363A87.12,87.12,0,0,0,387.316,293s29.134.657,27.437,4.949a16.046,16.046,0,0,0-.438,5.889c.134,2.446.488,5.21.855,7.55.509,3.21,1.018,5.656,1.018,5.656s-1.781,2.5-2.828,2.63S419.044,340.585,405.654,335.417Z" transform="translate(-147.099 -127.306)" fill="#cf6f80"/>
        <path id="Path_39" data-name="Path 39" d="M371.588,798.119l-.219.24c-8.71-10.534-19.243,2.594-19.243,2.594l-.156-.276.537-5.967,16.522-4.291,2.34,7.154Z" transform="translate(-136.879 -273.073)" opacity="0.1"/>
        <path id="Path_40" data-name="Path 40" d="M458.885,790.1s-6.363-.134-9.756,2.863-19.795.65-19.088,0a2.326,2.326,0,0,0,.368-1.075l2.227-1.789,26.073-.771C458.807,789.8,458.885,790.1,458.885,790.1Z" transform="translate(-159.751 -272.753)" opacity="0.1"/>
        <path id="Path_41" data-name="Path 41" d="M379.443,667.622a19.662,19.662,0,0,0-1.075,3.627,41.505,41.505,0,0,0-.488,10.293c.262,4.949,0,38.112,0,38.112s-5.592,8.844-8.71,11.962,6.363,8.717,6.363,8.717c1.414,8.059-7.154,17.165-7.154,17.165-8.71-10.534-19.243,2.6-19.243,2.6s-5.726-9.9-7.154-13.432,5.592-5.981,8.059-7.416-.12-9.9-.12-9.9-2.086-7.416-4.56-14.181,2.729-40.445,2.729-40.445.269-5.981.912-8.066a13.488,13.488,0,0,0,.191-4.581c-.042-.516-.092-.947-.127-1.237s-.064-.424-.064-.424l.1-.17,3.535-6.589S381.14,663.473,379.443,667.622Z" transform="translate(-133.896 -232.996)" fill="#1b9dff"/>
        <path id="Path_42" data-name="Path 42" d="M455.717,752.432s-6.363-.135-9.756,2.828-19.795.65-19.088,0,.65-5.465.65-5.465c-9.622-13.135-1.414-18.466-1.414-18.466s-4.3-20.678-5.076-28.349c-.544-5.359-1.216-19.759-1.577-27.981-.156-3.535-.247-5.967-.247-5.967l7.861-1.583,1.011-.2,18.96-3.8s.523,3.535.877,6.426a30.027,30.027,0,0,1,.3,3.726c-.127,1.414,0,5.839,0,5.839l.643,13.27a15.072,15.072,0,0,0-.643,4.291c.127,1.69,2.595,25.882,2.595,25.882s4.291,14.436,2.828,15.475S455.717,752.432,455.717,752.432Z" transform="translate(-156.583 -235.862)" fill="#1b9dff"/>
        <path id="Path_43" data-name="Path 43" d="M414.947,297.949a16.042,16.042,0,0,0-.438,5.889,24.214,24.214,0,0,1-25.747-.481A87.125,87.125,0,0,0,387.51,293S416.644,293.643,414.947,297.949Z" transform="translate(-147.294 -127.306)" opacity="0.1"/>
        <path id="Path_44" data-name="Path 44" d="M422.2,267.872a23.948,23.948,0,0,1-1.188,7.5,24.192,24.192,0,0,1-47.182-6.921v-.58a24.19,24.19,0,1,1,48.38,0Z" transform="translate(-143.285 -112.853)" fill="#cf6f80"/>
        <path id="Path_45" data-name="Path 45" d="M405.654,342.345c-9.332-3.627-21.336-15.61-18.338-21.209a12.527,12.527,0,0,0,1.166-4.5l12.775,10.5,7.9,6.483,6.009-15.3c.509,3.21,1.018,5.656,1.018,5.656s-1.781,2.5-2.828,2.63S419.044,347.513,405.654,342.345Z" transform="translate(-147.099 -134.234)" opacity="0.1"/>
        <path id="Path_46" data-name="Path 46" d="M387.817,329.646,377.149,508.86l-13.913.912L327.21,405.856l5.91-123.371,1.244-26.065,16.02,13.156,7.911,6.483,6.186-15.744,11.5,10.025Z" transform="translate(-96.227 -75.138)" fill="#1b9dff"/>
        <path id="Path_47" data-name="Path 47" d="M382.434,667.646a19.67,19.67,0,0,0-1.075,3.627,102.514,102.514,0,0,1-29.169-9.113l-.191-.1.064-1.138.035-.594,3.535-6.589S384.131,663.5,382.434,667.646Z" transform="translate(-136.888 -233.019)" opacity="0.1"/>
        <path id="Path_48" data-name="Path 48" d="M427.216,675.82a71.6,71.6,0,0,1-7.819.891c-.155-3.535-.247-5.967-.247-5.967l7.861-1.584Z" transform="translate(-156.566 -237.538)" opacity="0.1"/>
        <path id="Path_49" data-name="Path 49" d="M451.537,669.916c-5.026,1.308-12.789,2.778-19.738,1.859l-.1-4.482,18.961-3.8S451.184,666.989,451.537,669.916Z" transform="translate(-160.243 -235.877)" opacity="0.1"/>
        <path id="Path_50" data-name="Path 50" d="M393.664,570.473c-28.985,4.949-55.531-9.24-55.531-9.24l.255-4.807s.657-54.5-1.167-58.677-3.245-25.366-2.213-28.618-3.768-52.018-3.768-52.018l-.778-19.795L302,385.788l12.725-26.525a95.722,95.722,0,0,0,4.425-11.453c2.213-6.886,12.485-13.651,12.485-13.651s10.534-6.758,14.7-6.5,9.622-5.981,9.622-5.981c4.03-10.272,7.677-5.62,7.677-5.62a9.178,9.178,0,0,1-.2,1.52c-1.414,11.276,22.863,46.906,23.209,47.536h0l2.312,56.316,2.34,71.268Z" transform="translate(-122.235 -133.754)" opacity="0.1"/>
        <path id="Path_51" data-name="Path 51" d="M392.555,570.456c-28.985,4.949-55.538-9.24-55.538-9.24l.262-4.807s.658-54.5-1.174-58.677-3.245-25.366-2.206-28.618-3.768-52.018-3.768-52.018l-.785-19.795L300.87,385.729,313.6,359.2a97.212,97.212,0,0,0,4.425-11.453c2.206-6.886,12.485-13.651,12.485-13.651s10.534-6.758,14.691-6.5,9.622-5.981,9.622-5.981c4.037-10.272,8.483-5.62,8.483-5.62,0,.488-.424.707-.2,1.52,3.111,10.937,22.085,46.906,22.432,47.536h0l2.34,56.316,2.34,71.268Z" transform="translate(-121.904 -133.737)" fill="#fff"/>
        <path id="Path_52" data-name="Path 52" d="M408.442,367.334c-3.118-1.3-19.632-20.155-19.632-20.155v-4.291c-.6-1.414-4.171-.551-7.07.438l1.244-26.065,1.414,1.173C387.495,329.363,408.081,366.7,408.442,367.334Z" transform="translate(-145.603 -134.416)" opacity="0.1"/>
        <path id="Path_53" data-name="Path 53" d="M409.549,365.124c-3.125-1.3-19.639-20.155-19.639-20.155v-4.291c-.6-1.414-4.171-.551-7.07.438l1.251-26.065,1.414,1.174C388.609,327.153,409.2,364.5,409.549,365.124Z" transform="translate(-145.925 -133.768)" fill="#fff"/>
        <path id="Path_54" data-name="Path 54" d="M352.451,518.028c.389,0,20.155-2.078,20.155-2.078s11.969,23.535,11.184,29.261-2.206,10.8-7.02,9.9-25.91.707-25.91.707Z" transform="translate(-136.554 -192.641)" opacity="0.1"/>
        <path id="Path_55" data-name="Path 55" d="M351.341,515.818c.389,0,20.155-2.078,20.155-2.078S383.458,537.282,382.68,543s-2.213,10.8-7.02,9.9-25.91.707-25.91.707Z" transform="translate(-136.228 -191.993)" fill="#fff"/>
        <path id="Path_56" data-name="Path 56" d="M368.589,501.05s18.141,9.749,18.529,12.725-9.233-1.3-11.311-1.817a25.877,25.877,0,0,0-4.164-.65l-13.863.375Z" transform="translate(-138.581 -188.274)" fill="#cf6f80"/>
        <circle id="Ellipse_3" data-name="Ellipse 3" cx="1.909" cy="1.909" r="1.909" transform="translate(255.868 230.316)" opacity="0.1"/>
        <circle id="Ellipse_4" data-name="Ellipse 4" cx="1.909" cy="1.909" r="1.909" transform="translate(255.868 229.539)" fill="#3f3d56"/>
        <circle id="Ellipse_5" data-name="Ellipse 5" cx="1.909" cy="1.909" r="1.909" transform="translate(259.382 312.945)" opacity="0.1"/>
        <circle id="Ellipse_6" data-name="Ellipse 6" cx="1.909" cy="1.909" r="1.909" transform="translate(259.382 312.161)" fill="#3f3d56"/>
        <circle id="Ellipse_7" data-name="Ellipse 7" cx="1.909" cy="1.909" r="1.909" transform="translate(257.77 271.631)" opacity="0.1"/>
        <circle id="Ellipse_8" data-name="Ellipse 8" cx="1.909" cy="1.909" r="1.909" transform="translate(257.77 270.853)" fill="#3f3d56"/>
        <path id="Path_57" data-name="Path 57" d="M462.516,457.522s1.3,1.951,0,2.863.127,3.118.127,3.118-3.245,1.9-1.817,3.612.523,9.438.523,9.438l-3.9,6.462s.233,4.164.247,9.791c0,8.78-.516,21.124-3.372,26.751l.4,46.171s-13.665,4.991-25.1,3.471l-1.7-74.089s2.474-42.014,3.386-50.074a83.9,83.9,0,0,0,.65-12.619s-.389-12.612-1.7-18.466c0,0-1.414-25.359-1.555-32.379-.064-3.358.113-13.156.311-22.474.219-10.187.467-19.795.467-19.795l-2.58-20.417s2.58-.262,3.358.778a7.441,7.441,0,0,0,1.131.87h0c4.454,3.012,20.191,12.273,20.191,12.273s8.71,3.464,10.8,8.427,3.535,8.483,4.546,9.9,1.562,8.059,1.562,8.059,3,12.23,5.337,14.3,4.051,15.249,4.051,15.249L457.193,405s-1.817,27.048-2.206,28.094S462.516,457.522,462.516,457.522Z" transform="translate(-158.837 -134.884)" fill="#fff"/>
        <path id="Path_58" data-name="Path 58" d="M463.281,457.428s1.294,1.951,0,2.863.12,3.118.12,3.118-3.224,1.923-1.81,3.634.523,9.438.523,9.438l-3.9,6.462s.233,4.164.255,9.791c0,8.78-.516,21.124-3.372,26.751l.389,46.171s-13.687,4.991-25.111,3.471l-1.69-74.089s2.474-42.014,3.386-50.074a83.117,83.117,0,0,0,.643-12.619s-.389-12.612-1.69-18.466c0,0-1.414-25.359-1.562-32.379-.064-3.358.12-13.156.311-22.474.219-10.187.467-19.795.467-19.795L426.83,318.54s3.408,0,4.192,1.053a6.71,6.71,0,0,0,1.131.87h0c4.454,3.012,20.2,12.273,20.2,12.273s8.7,3.464,10.788,8.427,3.535,8.483,4.553,9.9,1.555,8.059,1.555,8.059,3,12.23,5.337,14.3,4.03,15.221,4.03,15.221L457.936,404.9S456.119,431.95,455.723,433,463.281,457.428,463.281,457.428Z" transform="translate(-158.816 -134.791)" fill="#fff"/>
        <path id="Path_59" data-name="Path 59" d="M438.841,345.876l1.866,5.444-9.827,9.9c.219-10.18.467-19.795.467-19.795L427.94,320.73s3.408,0,4.192,1.053a6.448,6.448,0,0,0,1.131.862h0l8.356,24.107Z" transform="translate(-159.141 -135.433)" opacity="0.1"/>
        <path id="Path_60" data-name="Path 60" d="M437.731,343.666l1.873,5.444-9.827,9.9c.219-10.187.467-19.795.467-19.795L426.83,318.52s3.415,0,4.192,1.053a7.069,7.069,0,0,0,1.131.87h0l8.363,24.1Z" transform="translate(-158.816 -134.785)" fill="#fff"/>
        <path id="Path_61" data-name="Path 61" d="M422.2,267.872a23.945,23.945,0,0,1-1.188,7.5,1.011,1.011,0,0,1-.764-.191c-.184-6.363-3.316-12.336-7.168-17.419a18.3,18.3,0,0,0-3.888-4.03,7.607,7.607,0,0,0-5.274-1.492c-2.121.29-3.994,1.732-6.136,1.916-2.828.233-5.359-1.725-8.165-1.824a8.024,8.024,0,0,0-6,2.785,16.465,16.465,0,0,0-3.217,5.967,34.911,34.911,0,0,0-1.8,10.293c-.035,1.979-.226,4.461-2.064,5.182a10.562,10.562,0,0,0-2.665-8.066l-.042-.042v-.58a24.19,24.19,0,1,1,48.38,0Z" transform="translate(-143.285 -112.853)" opacity="0.1"/>
        <path id="Path_62" data-name="Path 62" d="M404.97,222.913a16.656,16.656,0,0,0-11.75-.919c-1.958.58-3.8,1.52-5.79,1.994-4.242,1.025-9.19-.085-12.831,2.4-2.022,1.414-3.238,3.648-4.369,5.818L367.4,237.59a34.959,34.959,0,0,0-3.74,9.19c-.643,3.245-.254,6.879,1.8,9.487,1.5,1.9,3.712,3.1,5.338,4.885a10.6,10.6,0,0,1,2.658,8.059c1.845-.707,2.022-3.2,2.064-5.175a34.909,34.909,0,0,1,1.8-10.293,16.409,16.409,0,0,1,3.217-5.967,8.038,8.038,0,0,1,6-2.785c2.828.1,5.366,2.05,8.165,1.817,2.121-.177,4-1.626,6.136-1.909a7.579,7.579,0,0,1,5.274,1.492,18.112,18.112,0,0,1,3.881,4.03c3.86,5.083,6.992,11.043,7.176,17.419.8.587,1.951-.177,2.347-1.082a25.842,25.842,0,0,1,.912-2.828c.58-1,1.69-1.527,2.559-2.276,2.206-1.9,2.757-5.1,2.672-8.01s-.65-5.854-.1-8.71c.332-1.753,1.082-3.393,1.492-5.125a6.7,6.7,0,0,0-.509-5.168c-1.414-2.192-4.39-2.623-6.985-2.828-2.948-.254-5.585.071-7.465-2.411a27.081,27.081,0,0,0-2.969-3.634C408.752,225.4,404.97,223.069,404.97,222.913Z" transform="translate(-140.222 -106.304)" fill="#512e4e"/>
        <path id="Path_63" data-name="Path 63" d="M309.488,428.788,302.1,415.13,299.76,436.2s1.3,9.36,1.039,10.8,5.33,14.3,5.33,14.3,18.473,32.9,26.016,34.6l25.486-18.211-6.758-8.582s-2.34-.912-2.927,0c0,0-12.548-21.59-13.849-23.153s-1.046-4.68-1.046-4.68-1.951-2.078-1.3-4.03-3.768-8.717-3.768-8.717l4.03-3.768Z" transform="translate(-121.579 -163.096)" opacity="0.1"/>
        <path id="Path_64" data-name="Path 64" d="M301.841,412.93l-1.951,1.555-2.34,21.074s1.3,9.36,1.039,10.8,5.337,14.3,5.337,14.3,18.466,32.9,26.009,34.6l25.493-18.211-6.766-8.582s-2.34-.912-2.927,0c0,0-12.548-21.59-13.849-23.153s-1.039-4.68-1.039-4.68-1.951-2.078-1.3-4.03-3.775-8.717-3.775-8.717l4.03-3.768Z" transform="translate(-120.931 -162.451)" fill="#fff"/>
        <path id="Path_65" data-name="Path 65" d="M468.776,524.491c1.414,1.718.523,9.431.523,9.431l-3.9,6.462s.233,4.171.247,9.791l-6.561,2.05a3.9,3.9,0,0,1-5.055-3.839L455.16,511.9l15.306,5.854c-1.3.9.127,3.125.127,3.125S467.348,522.773,468.776,524.491Z" transform="translate(-166.786 -191.454)" opacity="0.1"/>
        <path id="Path_66" data-name="Path 66" d="M469.883,523.384c1.414,1.718.523,9.438.523,9.438l-3.9,6.462s.233,4.164.254,9.791l-6.681,2.086a3.818,3.818,0,0,1-4.949-3.761l1.138-36.6,15.313,5.854c-1.308.9.12,3.118.12,3.118S468.469,521.673,469.883,523.384Z" transform="translate(-167.109 -191.132)" fill="#fff"/>
        <path id="Path_67" data-name="Path 67" d="M478.094,501.64s-1.039,6.638-3.641,7.027-3.768,10.739-6.362,10.371-.877-9.622-.785-11.417-2.828-9.233-.643-10.922,9.1,0,9.1,0Z" transform="translate(-170.251 -186.779)" fill="#cf6f80"/>
        <path id="Path_68" data-name="Path 68" d="M482.524,427.587l4.906-9.9s1.951,7.543,1.951,11.573,2.729,4.426,2.729,4.426,2.99,3.535,1.414,6.108-2.213,8.978-2.213,8.978.516,12.223-1.824,13.913-2.828,5.726-2.828,5.726-4.3,7.67-4.164,9.494-5.981,14.174-5.981,14.174,2.99-15.348-14.436-21.979c0,0-.134-5.21,1.167-6.638s3.33-2.078,2.057-9.3-.368-15.843-.368-17.575,3.9-12.534,3.9-12.534Z" transform="translate(-169.144 -163.846)" opacity="0.1"/>
        <path id="Path_69" data-name="Path 69" d="M485.257,415.69l4.284,1.414s1.958,7.543,1.958,11.573,2.729,4.426,2.729,4.426,2.99,3.535,1.414,6.108-2.206,8.978-2.206,8.978.516,12.223-1.824,13.913-2.863,5.726-2.863,5.726-4.291,7.67-4.157,9.494S478.6,491.5,478.6,491.5s3-15.348-14.436-21.979c0,0-.127-5.21,1.174-6.638s3.33-2.079,2.057-9.3-.368-15.843-.368-17.575,3.9-12.534,3.9-12.534Z" transform="translate(-169.757 -163.26)" fill="#fff"/>
        <path id="Path_70" data-name="Path 70" d="M360.15,777.6s6.829-4.291,11.311-1.174S360.15,777.6,360.15,777.6Z" transform="translate(-139.276 -268.64)" opacity="0.1"/>
        <path id="Path_71" data-name="Path 71" d="M435.21,759.774a13.824,13.824,0,0,1,11.12,4.687C451.406,769.926,435.21,759.774,435.21,759.774Z" transform="translate(-161.272 -264.081)" opacity="0.1"/>
        <g id="Group_1" data-name="Group 1" transform="translate(223.161 130.558)" opacity="0.1">
          <path id="Path_72" data-name="Path 72" d="M427.2,269.224c-.87.749-1.987,1.287-2.566,2.283a25.871,25.871,0,0,0-.9,2.828c-.4.919-1.548,1.668-2.347,1.089-.184-6.363-3.323-12.336-7.176-17.426a18.112,18.112,0,0,0-3.881-4.03,7.6,7.6,0,0,0-5.281-1.492c-2.121.29-3.987,1.732-6.129,1.909-2.828.24-5.366-1.718-8.172-1.817a8,8,0,0,0-5.995,2.792,16.372,16.372,0,0,0-3.217,5.96,34.95,34.95,0,0,0-1.8,10.293c-.042,1.972-.226,4.433-2.05,5.168a9.68,9.68,0,0,1,0,1.569c1.838-.707,2.022-3.2,2.064-5.175a34.91,34.91,0,0,1,1.8-10.293,16.409,16.409,0,0,1,3.217-5.967,8.024,8.024,0,0,1,6-2.785c2.828.1,5.373,2.05,8.172,1.817,2.121-.177,4-1.626,6.129-1.909a7.6,7.6,0,0,1,5.281,1.492,18.112,18.112,0,0,1,3.881,4.03c3.853,5.083,6.992,11.043,7.176,17.419.8.587,1.951-.177,2.347-1.082a27.426,27.426,0,0,1,.9-2.828c.58-1,1.7-1.527,2.566-2.276,2.206-1.9,2.757-5.1,2.672-8.01v-.269C429.747,265.032,429.076,267.6,427.2,269.224Z" transform="translate(-367.574 -245.979)"/>
          <path id="Path_73" data-name="Path 73" d="M370.818,271.048c-1.626-1.789-3.846-2.983-5.338-4.878a10.35,10.35,0,0,1-2.057-5.79,10.887,10.887,0,0,0,2.057,7.345c1.492,1.9,3.712,3.1,5.338,4.885a10.6,10.6,0,0,1,2.665,6.306,10.6,10.6,0,0,0-2.665-7.868Z" transform="translate(-363.385 -248.305)"/>
          <path id="Path_74" data-name="Path 74" d="M452.75,244.7c-.417,1.732-1.159,3.379-1.5,5.125a16.323,16.323,0,0,0-.219,3.535,13.715,13.715,0,0,1,.219-2.008c.339-1.753,1.082-3.393,1.5-5.125a8.7,8.7,0,0,0,.233-2.927A9.821,9.821,0,0,1,452.75,244.7Z" transform="translate(-389.064 -243.3)"/>
        </g>
        <ellipse id="Ellipse_9" data-name="Ellipse 9" cx="68.886" cy="11.064" rx="68.886" ry="11.064" transform="translate(24.609 515.58)" fill="#0F00FF" opacity="0.1"/>
        <rect id="Rectangle_32" data-name="Rectangle 32" width="4.433" height="99.801" transform="translate(91.282 314.699)" fill="#535461"/>
        <path id="Path_75" data-name="Path 75" d="M197.582,641.7l-.276,4.5-.4,6.363-.163,2.644-.389,6.363-.17,2.644-.4,6.363-4.468,72.159a12.23,12.23,0,0,1-12.2,11.467H155.893A12.223,12.223,0,0,1,143.7,742.734l-4.447-72.208-.4-6.363-.163-2.644-.4-6.363-.163-2.644-.4-6.363-.283-4.5a6.363,6.363,0,0,1,6.363-6.723h47.514a6.32,6.32,0,0,1,6.249,6.773Z" transform="translate(-74.014 -227.507)" fill="#3f3d56"/>
        <path id="Path_76" data-name="Path 76" d="M150.176,592.24l-.4,6.341h-58.8l-.4-6.341Z" transform="translate(-26.883 -173.548)" fill="#9d9cb5"/>
        <path id="Path_77" data-name="Path 77" d="M149.849,604.95l-.389,6.349H91.766l-.4-6.349Z" transform="translate(-27.115 -177.273)" fill="#9d9cb5"/>
        <path id="Path_78" data-name="Path 78" d="M149.522,617.68l-.389,6.341H92.556l-.4-6.341Z" transform="translate(-27.346 -181.003)" fill="#9d9cb5"/>
        <path id="Path_79" data-name="Path 79" d="M104.66,548.5c25.811,18.678,36.585,47.889,36.585,47.889s-31.106-1.068-56.924-19.745S47.75,528.76,47.75,528.76,78.842,529.82,104.66,548.5Z" transform="translate(-47.729 -196.395)" fill="#1b9dff"/>
        <path id="Path_80" data-name="Path 80" d="M47.72,528.76s32.294,17.921,42.651,32.76,50.865,34.867,50.865,34.867" transform="translate(-47.72 -196.395)" fill="none" stroke="#535461" stroke-miterlimit="10" stroke-width="2"/>
        <path id="Path_81" data-name="Path 81" d="M138.979,499.006c14.047,10.159,19.922,26.058,19.922,26.058s-16.932-.58-30.986-10.739S108,488.26,108,488.26,124.925,488.84,138.979,499.006Z" transform="translate(-65.385 -184.526)" fill="#1b9dff"/>
        <path id="Path_82" data-name="Path 82" d="M108,488.26s17.575,9.756,23.209,17.829S158.9,525.064,158.9,525.064" transform="translate(-65.385 -184.526)" fill="none" stroke="#535461" stroke-miterlimit="10" stroke-width="2"/>
        <path id="Path_83" data-name="Path 83" d="M200.744,529.51c-16.14,17.737-19.554,40.919-19.554,40.919s22.757-5.585,38.883-23.329,19.554-40.919,19.554-40.919S216.884,511.772,200.744,529.51Z" transform="translate(-86.833 -189.778)" fill="#1b9dff"/>
        <path id="Path_84" data-name="Path 84" d="M239.641,506.19s-21.025,18.183-26.369,30.71-32.082,33.531-32.082,33.531" transform="translate(-86.833 -189.781)" fill="none" stroke="#535461" stroke-miterlimit="10" stroke-width="2"/>
        <path id="Path_85" data-name="Path 85" d="M981.139,452.207s-11.672-58.069-7.2-65.294c0,0,.163-6.716-.106-15.277v-.983a21.751,21.751,0,0,0,2.453,1.414,19.851,19.851,0,0,0,13.361,1.725l-3.535-3.938a6.528,6.528,0,0,1-1.916-3.2,6.71,6.71,0,0,1,.764-3.464c3.358-8.483,3.535-19.151-2.934-25.627-5.465-5.444-6.794-12.471-12.725-17.441-4.334-3.641-6.716-8.978-8.964-14.139a79.522,79.522,0,0,1-4.906-13.383c-.848-3.612-1.188-7.352-2.354-10.88s-3.351-6.956-6.766-8.533a25.537,25.537,0,0,1-3.676-1.619c-1.456-.983-2.333-2.58-3.386-3.98-5.352-7.07-23.273-2.906-31.756-.035a17.863,17.863,0,0,0-6.278,3.478l.078-.127c.064-.106.141-.212.212-.318a11.155,11.155,0,0,0-2.375,2.651c-1.237,1.958-1.753,4.242-2.785,6.363-1.244,2.51-8.165,9.516-5.189,12.336a2.509,2.509,0,0,0,.707.452,6.115,6.115,0,0,0,3.535.353l-.127.3a20.663,20.663,0,0,0-1.534,7.84,21.219,21.219,0,0,0,21.407,21.032,21.613,21.613,0,0,0,6.553-1.011c.049.269.092.537.141.806a2.473,2.473,0,0,0,.05.318h0l-.375.523a.7.7,0,0,0-.064-.092l-11.1,15.511c-1.7,1.195-11.467,8.264-12.018,13.566-.58,5.8-1.159,12.6-1.159,12.6l-.078,1.456a4.369,4.369,0,0,1-3.535.954c-3.464-.566-3.464,12.725-3.464,12.725s-2.3,2.121-3.888.283-5.769,4.39-5.769,4.39l-26.228,1.131h0l-.6.035-1.414-4.376a1.845,1.845,0,0,0-2.312-1.181,2.11,2.11,0,0,0-.318.134l-.1.057-.184.127-.092.085a1.413,1.413,0,0,0-.141.148l-.085.1-.042.042h0a1.781,1.781,0,0,0-.255,1.584l1.216,3.754c-5.062,1.018-10.237,3.888-6.016,11.792l-21.392-3.952,6.921,5.811,35.73,7.374c-.474.848-.163,2.078,1.315,3.81,6.363,7.472,17.957,9.5,22.623,10.025a40.156,40.156,0,0,0,4.588,7.777l-.4,7.444s-11.813,56.74-13.976,59.618a33.618,33.618,0,0,0,2.99-3.938c-3.429,11.658-8.222,27.614-9.48,30-2.022,3.818-3.9,19.264-1.591,20.254.707.3,2.729.156,5.613-.064v1.28l-.127,48.49s.58,29.741-1.011,32.577-2.015,8.78-2.015,8.78-6.363,11.728-11.4,16.444a.754.754,0,0,1-.113.1l-.156-1.1s-6.059,7.649-19.463,7.218c0,0-8.066,5.246,3.9,5.528s27.239-.424,27.239-.424,10.668-16.26,19.6-14.139V658.61h2.736V646.09a11.219,11.219,0,0,0,4.871-7.373,8.964,8.964,0,0,0-3.2-8.293,5.3,5.3,0,0,1-1.746-3.874l-.1.085a7.5,7.5,0,0,0-.092-.763c-.785-6.363-1.767-19.491,1.7-29.2,4.758-13.319,6.2-31.87,2.736-42.912A98.648,98.648,0,0,1,897.414,543c-.085-.46-.163-.9-.233-1.308a55.728,55.728,0,0,1,7.02,1.414c8.024,2.213,25.578,2.623,40.565,2.5.035.41.078.841.127,1.272a46.307,46.307,0,0,0,1.668,8.851c1.881,5.656,2.743,30.59,2.743,30.59s2.425,20.5,1.1,28.844c-.707,4.638-1.414,9.3-1.817,13.977v.092s-3.973,11.311-6.879,17.455c-.071.156-.148.311-.219.459a9.193,9.193,0,0,0-2.269.5s-3.9,7.777-7.777,9.063-2.594,5.521,6.193,3.966,22.057-2.828,22.057-2.828l.573-7.932,2.7-3.379-.707,7.911,2.877-.566-.382-9.622,4.418-5.528s5.337-4.751-2.595-14.1v.2c-.085-.134-.163-.276-.255-.41v-.042c-1.315-2.036-2.361-5.832-.445-12.57,3.464-12.174,5.479-23.223,5.479-23.223S979.1,559,969.8,545h.41a23.559,23.559,0,0,1-2-6.221q-.07-.382-.127-.785c6.879-.4,13.63-1.64,19.137-4.327C987.2,533.634,983.882,463.391,981.139,452.207Zm-87.33-48.992v.141l-1.414.071Zm-4.85.672a1.563,1.563,0,0,0-.636.3,6.278,6.278,0,0,0-1.11,2.906l-2.206-.495s-1.548-.332-3.775-.707l-1.053-1.06C883.077,404.594,886.089,404.24,888.959,403.887Z" transform="translate(-274.757 -118.718)" fill="url(#linear-gradient-2)"/>
        <path id="Path_86" data-name="Path 86" d="M972.161,742.944l-.841,10.017,2.821-.566-.424-10.866Z" transform="translate(-284.98 -217.297)" fill="#1d2366"/>
        <path id="Path_87" data-name="Path 87" d="M912.776,710.021c-3.4,9.685-2.439,22.757-1.675,29.105.283,2.347.544,3.775.544,3.775s-5.083,11.58-5.507,12.018-14.959,9.311-14.959,9.311l-10.159,5.931s-10.307-4.517-5.366-6.073a7.5,7.5,0,0,0,2.665-1.817c4.949-4.7,11.163-16.387,11.163-16.387s.424-5.931,1.979-8.752.99-32.463.99-32.463l.12-48.32v-6.3l19.335.141a43.743,43.743,0,0,0,.834,6.363,97.219,97.219,0,0,0,2.693,10.718C918.842,678.293,917.428,696.751,912.776,710.021Z" transform="translate(-289.949 -231.938)" fill="#ffb0b1"/>
        <path id="Path_88" data-name="Path 88" d="M911.645,779.831s-5.083,11.58-5.507,12.018-14.959,9.31-14.959,9.31l-10.159,5.931s-10.307-4.517-5.366-6.073a7.5,7.5,0,0,0,2.665-1.817l.438,3.089,3.386-.141,28.985-26.08C911.384,778.4,911.645,779.831,911.645,779.831Z" transform="translate(-289.949 -268.868)" opacity="0.1"/>
        <path id="Path_89" data-name="Path 89" d="M903.848,777,874.7,803.256l-3.386.141-.707-4.949s-5.924,7.621-19.088,7.2c0,0-7.9,5.224,3.811,5.507S882,810.729,882,810.729s10.449-16.26,19.194-14.139v12.28h2.687V796.477a11.162,11.162,0,0,0,4.765-7.352,9.006,9.006,0,0,0-3.118-8.257A5.324,5.324,0,0,1,903.848,777Z" transform="translate(-282.505 -269.14)" fill="#1d2366"/>
        <path id="Path_90" data-name="Path 90" d="M1012.668,724.9c-1.88,6.716-.855,10.5.431,12.527v.042a23.157,23.157,0,0,1,3.379,8.25l.113.636-13.263,19.335-7.2,2.828s-11.573-3.952-9.459-5.083c.53-.276,1.357-1.746,2.3-3.775,2.828-6.115,6.73-17.4,6.73-17.4v-.092c.41-4.659,1.061-9.3,1.781-13.927,1.294-8.321-1.082-28.745-1.082-28.745s-.848-24.835-2.686-30.484a46.626,46.626,0,0,1-1.647-8.794c-.382-3.535-.466-6.448-.466-6.448s7.621-10.6,21.59.849a15.368,15.368,0,0,1,2.92,3.167c9.65,13.729,1.88,43.973,1.88,43.973S1016.054,712.765,1012.668,724.9Z" transform="translate(-322.8 -231.72)" fill="#ffb0b1"/>
        <path id="Path_91" data-name="Path 91" d="M1016.621,782.818l-13.262,19.335-7.2,2.828s-11.573-3.952-9.459-5.083c.53-.276,1.358-1.746,2.3-3.775,4.9-.042,7.437,4.624,7.437,4.624l6.207-.99s8.186-16.09,10.025-17.073.283-7.345.283-7.345V773.72c.05.057.092.12.149.177v.042a23.153,23.153,0,0,1,3.379,8.25Z" transform="translate(-322.809 -268.179)" opacity="0.1"/>
        <path id="Path_92" data-name="Path 92" d="M992.914,801.334s-3.535-6.49-10.307-4.093c0,0-3.811,7.777-7.621,9.035s-2.538,5.5,6.073,3.952,21.59-2.828,21.59-2.828l.565-7.911,8.752-11.149s5.217-4.73-2.545-14.04v1.619s1.555,6.363-.283,7.345-10,17.08-10,17.08Z" transform="translate(-318.854 -268.349)" fill="#1d2366"/>
        <path id="Path_93" data-name="Path 93" d="M919.5,650.171a43.73,43.73,0,0,0,.834,6.363,88.681,88.681,0,0,0-20.191-.205v-6.3Z" transform="translate(-297.517 -231.932)" opacity="0.1"/>
        <path id="Path_94" data-name="Path 94" d="M1019.067,659.549s-11.311.551-24.8.664c-.382-3.535-.467-6.447-.467-6.447s7.621-10.6,21.59.848a15.371,15.371,0,0,1,2.92,3.167A17.23,17.23,0,0,0,1019.067,659.549Z" transform="translate(-324.964 -231.717)" opacity="0.1"/>
        <path id="Path_95" data-name="Path 95" d="M988.915,606.946s-49.543,2.4-64.644-1.838-30.067-.566-32.322-1.548-.424-16.373,1.555-20.184,12.838-42.347,12.838-42.347l10.449-54.478,11.007-3.033.778-.219,19.18-5.288,14.054-3.881s27.946,109.1,25.549,117.149a20.6,20.6,0,0,0-.41,9.466A23.631,23.631,0,0,0,988.915,606.946Z" transform="translate(-294.813 -180.386)" fill="#1b9dff"/>
        <path id="Path_96" data-name="Path 96" d="M873.841,439s-9.9,10.6-2.4,16.514,12.421.566,12.421.566Z" transform="translate(-288.284 -170.091)" fill="#c7daf5"/>
        <path id="Path_97" data-name="Path 97" d="M873.841,439s-9.9,10.6-2.4,16.514,12.421.566,12.421.566Z" transform="translate(-288.284 -170.091)" opacity="0.1"/>
        <path id="Path_98" data-name="Path 98" d="M980.333,332.368s-1.16,1.1-2.906,2.729c-2.489,2.326-6.172,5.726-9.438,8.575-4.525,3.938-8.257,6.829-6.921,4.362s1.082-6.766.417-10.788c-.05-.269-.092-.537-.141-.8a74.049,74.049,0,0,0-2.184-8.738s7.31-9.445,11.354-13.171c1.506-1.414,2.559-1.994,2.623-1.011a32.84,32.84,0,0,0,2.291,7.338c.035.1.071.191.113.29.82,2.121,1.746,4.3,2.559,6.179C979.344,330.218,980.333,332.368,980.333,332.368Z" transform="translate(-314.813 -133.178)" fill="#ffb0b1"/>
        <path id="Path_99" data-name="Path 99" d="M975.54,321.159a20.983,20.983,0,0,1-14.054,16.09,73.577,73.577,0,0,0-2.326-9.537s13.764-17.78,13.977-14.182C973.186,314.9,974.261,317.921,975.54,321.159Z" transform="translate(-314.813 -133.182)" opacity="0.1"/>
        <path id="Path_100" data-name="Path 100" d="M949.538,352.96l1.781-2.51s1.181,7.2,5.521,4.023,4.553,23.888,4.553,23.888l-4.659,69.656L923.07,446l.954-33.658,3.811-16.967,9.424-24.666,5.606-8.151Z" transform="translate(-304.237 -144.142)" opacity="0.1"/>
        <path id="Path_101" data-name="Path 101" d="M961.4,378.956l-4.242,62.983-.445,6.674-18.77-1.124-.707-.042L923.1,446.6l.954-33.665,3.81-16.967,9.424-24.666,5.606-8.151,6.674-9.636,1.781-2.5s1.181,7.2,5.521,4.023l.092-.064h0C961.2,352.283,961.4,378.956,961.4,378.956Z" transform="translate(-304.246 -144.306)" fill="#3facff"/>
        <path id="Path_102" data-name="Path 102" d="M912.426,406.26s-1.69,3.535-5.083,2.962-3.386,12.725-3.386,12.725-2.255,2.121-3.81.283-5.656,4.376-5.656,4.376L868.8,427.737s11.431,5.224,9.19,21.032c0,0,38.812-2.4,40.084-6.073S912.426,406.26,912.426,406.26Z" transform="translate(-288.333 -160.497)" fill="#fff"/>
        <path id="Path_103" data-name="Path 103" d="M912.426,406.26s-1.69,3.535-5.083,2.962-3.386,12.725-3.386,12.725-2.255,2.121-3.81.283-5.656,4.376-5.656,4.376L868.8,427.737s11.431,5.224,9.19,21.032c0,0,38.812-2.4,40.084-6.073S912.426,406.26,912.426,406.26Z" transform="translate(-288.333 -160.497)" opacity="0.03"/>
        <path id="Path_104" data-name="Path 104" d="M777.66,389.76l6.773,5.783,55.75,11.714-6.914-7.055Z" transform="translate(-228.228 -114.213)" fill="#fff"/>
        <path id="Path_105" data-name="Path 105" d="M943.93,354.41c-.926,1.414-3.577,8.653-5.79,14.973-1.845,5.267-3.386,9.9-3.386,9.9s-3.6,23.428-5.437,27.663-.841,20.749-.841,20.749l-6.85,40.784s-3.1,21.032-7.9,33.595c-4.73,12.365-10,18.162-10.159,18.346,2.121-2.87,13.68-59.384,13.68-59.384l3.818-71.275s.558-6.773,1.124-12.563S934.209,363.5,934.209,363.5l11.043-15.7C946.362,349.285,945.62,351.872,943.93,354.41Z" transform="translate(-298.522 -143.365)" fill="#fff"/>
        <path id="Path_106" data-name="Path 106" d="M909.311,480.239s-16.26-.707-24.135-10.166,18.2-3.775,18.2-3.775l6.78,1.555Z" transform="translate(-292.698 -177.594)" fill="#ffb0b1"/>
        <path id="Path_107" data-name="Path 107" d="M1002.651,556.8a20.6,20.6,0,0,0-.41,9.466c-17.738,1.258-36.712-3.535-36.712-3.535-3.535,3.252-12.845,8.045-12.845,8.045l-5.076-62.919c-3.245-8.483-4.517-52.93-4.517-52.93s.29-2.326.707-5.811a.671.671,0,0,1,.035-.262c1.266-9.735,3.775-28.01,5.005-30.477,1.7-3.393-5.217-12.421-5.217-12.421l3.146-26.829.382-3.238c6.631-2.962,11.714-12.421,11.714-12.421l3.9-6.836h0c4.242-2.722,4.461,23.952,4.461,23.952l-4.242,62.983,14.054-3.881S1005.047,548.751,1002.651,556.8Z" transform="translate(-310.104 -145.895)" opacity="0.1"/>
        <path id="Path_108" data-name="Path 108" d="M1021.207,554.16c-19.335,9.6-54.478.707-54.478.707-3.535,3.252-12.845,8.045-12.845,8.045L948.8,499.993c-3.238-8.483-4.51-52.93-4.51-52.93s4.086-33.163,5.783-36.55c.495-.99.255-2.46-.332-4.044a51.173,51.173,0,0,1-3.1-23.676L948,371.263l.375-3.231C955.015,365.063,960.1,355.6,960.1,355.6l3.535-6.193,6.5-11.41,3.082-5.4.523.474,3.994,3.62,4.242,3.535c5.535,4.666,15.1,12.881,20.035,17.907,4.341,4.426,5.712,21.64,6.108,34.6.262,8.533.106,15.221.106,15.221-4.376,7.2,7.07,65.04,7.07,65.04C1017.962,484.171,1021.207,554.16,1021.207,554.16Z" transform="translate(-310.455 -138.911)" fill="#fff"/>
        <path id="Path_109" data-name="Path 109" d="M975.928,364.527s-13.27,25.26-11.729,34.86,5.924,20.466,3.811,23a7.812,7.812,0,0,1-6.214,3.1c-2.121.141-7.777,4.093-7.777,4.517s-5.224.424-9.9,2.4a61.624,61.624,0,0,1-11.573,3.1s-13.432-.424-14.683.848-2.538,8.886.141,14.959,5.656,10.6,7.9,11.431,16.514-3.952,28.087-5.083,24.135-10.3,24.135-10.3,13.835-4.949,16.26-13.27-2.962-54.054-2.962-54.054S987.36,358.737,975.928,364.527Z" transform="translate(-302.292 -147.975)" opacity="0.03"/>
        <path id="Path_110" data-name="Path 110" d="M973.537,361.527s-13.27,25.267-11.714,34.86,5.924,20.466,3.8,23.011a7.777,7.777,0,0,1-6.207,3.1c-2.121.141-7.776,4.093-7.776,4.517s-5.224.424-9.9,2.4a62.235,62.235,0,0,1-11.573,3.1s-13.432-.424-14.676.848-2.545,8.893.141,14.959,5.656,10.6,7.9,11.431,16.515-3.952,28.087-5.076,24.135-10.307,24.135-10.307,13.828-4.949,16.225-13.263-2.962-54.061-2.962-54.061S984.968,355.745,973.537,361.527Z" transform="translate(-301.597 -147.096)" opacity="0.03"/>
        <path id="Path_111" data-name="Path 111" d="M975.344,362.731S962.074,388,963.63,397.591s5.924,20.466,3.811,23a7.776,7.776,0,0,1-6.214,3.111c-2.121.141-7.776,4.093-7.776,4.51s-5.217.424-9.9,2.4a61.763,61.763,0,0,1-11.573,3.1s-13.432-.424-14.683.848-2.538,8.894.141,14.959,5.656,10.6,7.9,11.431,16.515-3.952,28.087-5.083,24.135-10.3,24.135-10.3,13.835-4.949,16.26-13.27-2.927-54.054-2.927-54.054S986.768,356.976,975.344,362.731Z" transform="translate(-302.125 -147.451)" fill="#fff"/>
        <path id="Path_112" data-name="Path 112" d="M996.4,458.738s-10.6-2.121-6.914,1.414,3.669,6.631,8.187,6.49S996.4,458.738,996.4,458.738Z" transform="translate(-323.471 -175.69)" opacity="0.1"/>
        <path id="Path_113" data-name="Path 113" d="M1024.421,566.58s-4.793,3.245,4.376,10.724S1024.421,566.58,1024.421,566.58Z" transform="translate(-333.57 -207.478)" opacity="0.1"/>
        <path id="Path_114" data-name="Path 114" d="M1011.915,604.31c0,.424-1.7,15.553,4.652,19.335S1011.915,604.31,1011.915,604.31Z" transform="translate(-330.212 -218.534)" opacity="0.1"/>
        <path id="Path_115" data-name="Path 115" d="M864.425,436.59c-5.118.177-16.175,1.739-10.442,12.435,5.069,9.466,13.588,3.139,18.381-1.661A18.063,18.063,0,0,0,864.425,436.59Z" transform="translate(-283.52 -169.385)" fill="#ffb0b1"/>
        <path id="Path_116" data-name="Path 116" d="M881.39,451Z" transform="translate(-292.023 -173.607)" fill="#ffb0b1"/>
        <path id="Path_117" data-name="Path 117" d="M880.74,451.619l.212-.219Z" transform="translate(-291.832 -173.725)" fill="#ffb0b1"/>
        <path id="Path_118" data-name="Path 118" d="M983.516,340.832c-5.43,3.712-9.982,6.843-10.873,7.494-2.432,1.8-7.07,12.386-10.06,17.787-2.382,4.348-10.124,5.465-13.043,5.741l.375-3.231c6.638-2.969,11.721-12.428,11.721-12.428l13.121-23,4.518,4.107Z" transform="translate(-311.994 -139.084)" opacity="0.1"/>
        <path id="Path_119" data-name="Path 119" d="M983.516,340.232c-5.43,3.711-9.982,6.843-10.873,7.5-2.432,1.8-7.07,12.379-10.06,17.78-2.382,4.348-10.124,5.465-13.043,5.741l.375-3.231c6.638-2.969,11.721-12.428,11.721-12.428l13.121-23,4.518,4.093S980.971,338.083,983.516,340.232Z" transform="translate(-311.994 -138.908)" fill="#dce7ff"/>
        <path id="Path_120" data-name="Path 120" d="M965.435,309.229A20.968,20.968,0,1,1,947.61,288.5,20.935,20.935,0,0,1,965.435,309.229Z" transform="translate(-304.362 -125.918)" fill="#ffb0b1"/>
        <path id="Path_121" data-name="Path 121" d="M1002.659,379.748a18.635,18.635,0,0,1-6.765-7.268c-1.181-2.333-1.965-5.026-3.98-6.681-1.817-1.485-4.242-1.845-6.5-2.51-7.437-2.2-13.673-8.985-13.906-16.734-.113-3.648,1.025-7.289.509-10.9a12.077,12.077,0,0,0-2.361-5.62,19.364,19.364,0,0,0-2.043-2.2c-.99-.933-2.029-1.838-2.934-2.828a10.974,10.974,0,0,1-1.484-2.015,9.69,9.69,0,0,1-.813-1.873c-1.414-4.327-.127-9.459-1.683-13.835l-.085-.24c-.587-1.555-1.781-3.111-3.443-3.231s-3.082,1.258-4.666,1.873c-3.316,1.287-6.893-.9-9.657-3.139s-5.882-4.786-9.4-4.291c-2.326.332-4.164,1.916-6.306,2.736a8.846,8.846,0,0,1-1.492.431,20.965,20.965,0,0,1,39.957,12.188c.035.1.071.191.113.29.82,2.121,1.746,4.3,2.559,6.179l3.994,3.62,4.242,3.535c5.536,4.666,15.1,12.881,20.035,17.907C1000.891,349.582,1002.249,366.789,1002.659,379.748Z" transform="translate(-304.993 -125.918)" opacity="0.1"/>
        <path id="Path_122" data-name="Path 122" d="M925,281.407c1.011-2.057,1.513-4.362,2.722-6.313,1.774-2.828,4.871-4.638,8.052-5.733,8.307-2.863,25.86-7.02,31.106,0,1.032,1.414,1.888,2.983,3.316,3.959a24.618,24.618,0,0,0,3.6,1.619c3.344,1.569,5.479,4.991,6.617,8.484s1.478,7.239,2.312,10.838a79.713,79.713,0,0,0,4.807,13.34c2.2,5.133,4.532,10.456,8.773,14.083,5.79,4.949,7.07,11.955,12.442,17.384,6.363,6.447,6.157,17.087,2.877,25.535a7.012,7.012,0,0,0-.75,3.45,6.767,6.767,0,0,0,1.874,3.2l3.478,3.924a19.558,19.558,0,0,1-21.371-9.855c-1.181-2.333-1.965-5.019-3.987-6.681-1.81-1.485-4.242-1.838-6.5-2.5-7.437-2.206-13.673-9-13.906-16.748-.113-3.641,1.025-7.282.509-10.887a12.019,12.019,0,0,0-2.368-5.656c-1.944-2.538-4.878-4.242-6.462-7.07-2.679-4.73-.643-10.873-2.573-15.949-.594-1.555-1.782-3.111-3.443-3.231s-3.082,1.258-4.673,1.873c-3.308,1.287-6.886-.9-9.65-3.139s-5.882-4.786-9.4-4.284c-2.326.325-4.157,1.909-6.3,2.736-1.583.608-4.793,1.152-6.179-.184C917,290.9,923.782,283.924,925,281.407Z" transform="translate(-303.103 -119.249)" fill="#591d4b"/>
        <path id="Path_123" data-name="Path 123" d="M996.761,365.833c-1.188-2.333-1.965-5.019-3.987-6.674-1.81-1.485-4.242-1.845-6.5-2.51-7.43-2.2-13.665-8.992-13.906-16.741-.113-3.641,1.025-7.289.516-10.894a12.087,12.087,0,0,0-2.368-5.62c-1.951-2.538-4.885-4.242-6.462-7.07-2.679-4.723-.643-10.866-2.58-15.949-.587-1.548-1.781-3.1-3.436-3.231s-3.089,1.265-4.673,1.88c-3.309,1.287-6.893-.9-9.65-3.139s-5.889-4.786-9.4-4.291c-2.326.332-4.164,1.916-6.3,2.736-1.584.608-4.8,1.159-6.186-.177-2.913-2.828,3.867-9.791,5.083-12.294,1.011-2.064,1.513-4.362,2.729-6.313.064-.106.134-.212.2-.318a11.225,11.225,0,0,0-2.326,2.644c-1.209,1.951-1.711,4.242-2.722,6.313-1.223,2.5-8,9.487-5.083,12.294,1.414,1.343,4.6.792,6.179.184,2.121-.827,3.973-2.411,6.3-2.736,3.535-.5,6.645,2.05,9.4,4.284s6.363,4.426,9.657,3.139c1.584-.615,2.969-2,4.666-1.873s2.828,1.675,3.443,3.231c1.93,5.076-.106,11.219,2.573,15.949,1.584,2.778,4.517,4.517,6.462,7.07a12.017,12.017,0,0,1,2.368,5.656c.516,3.606-.622,7.246-.509,10.887.233,7.777,6.469,14.542,13.906,16.748,2.241.664,4.687,1.018,6.5,2.5,2.029,1.661,2.828,4.348,3.987,6.681a19.558,19.558,0,0,0,21.371,9.855l-1.64-1.852A19.77,19.77,0,0,1,996.761,365.833Z" transform="translate(-303.04 -122.099)" opacity="0.1"/>
        <path id="Path_124" data-name="Path 124" d="M956.022,354.981c-.926,1.414-3.577,8.653-5.79,14.973-2.071-.806-3.952-5.945-3.952-5.945L957.323,348.3C958.454,349.855,957.711,352.436,956.022,354.981Z" transform="translate(-311.038 -143.512)" opacity="0.1"/>
        <path id="Path_125" data-name="Path 125" d="M956.622,354.384c-.926,1.414-3.577,8.653-5.79,14.973-2.071-.8-3.952-5.945-3.952-5.945l11.043-15.7C959.054,349.258,958.311,351.846,956.622,354.384Z" transform="translate(-311.214 -143.339)" fill="#dce7ff"/>
        <path id="Path_126" data-name="Path 126" d="M867.267,450.332l-6.122-19.307a1.8,1.8,0,0,1,1.174-2.269h0a1.81,1.81,0,0,1,2.262,1.174l6.122,19.286-.608,4.037Z" transform="translate(-286.065 -167.065)" fill="#be8b87"/>
        <path id="Path_127" data-name="Path 127" d="M861.845,429.34h0a1.81,1.81,0,0,1,2.269,1.174l6.122,19.286-.459,3.026.445.467.608-4.037-6.158-19.286a1.81,1.81,0,0,0-2.262-1.174h0a1.809,1.809,0,0,0-.94.707A2.46,2.46,0,0,1,861.845,429.34Z" transform="translate(-286.185 -167.076)" fill="#fff" opacity="0.1"/>
        <path id="Path_128" data-name="Path 128" d="M822.6,400.229l3.436-1.089-.5,3.309-.106.728-1-1.046Z" transform="translate(-241.398 -116.961)" fill="#efc8c4"/>
        <path id="Path_129" data-name="Path 129" d="M872.42,461.9a.707.707,0,0,1,.219-.184.311.311,0,0,1,.332,0,.881.881,0,0,1,.12.191.608.608,0,0,0,.438.29l-.106.707Z" transform="translate(-289.394 -176.735)" fill="#727a9c"/>
        <path id="Path_130" data-name="Path 130" d="M861.13,441.7s12.28-.071,9.388,5.154-7.409,5.854-7.409,5.854Z" transform="translate(-286.086 -170.882)" fill="#ffb0b1"/>
        <path id="Path_131" data-name="Path 131" d="M686.136,110.05h-.53a60.469,60.469,0,0,0-50.484,27.635,60.468,60.468,0,0,0-50.484-27.635h-.53a60.091,60.091,0,0,0-59.519,60.056c0,19.66,8.611,47.557,25.4,70.512,31.99,43.739,85.132,82.007,85.132,82.007s53.142-38.26,85.125-82.007c16.8-22.955,25.4-50.851,25.4-70.512a60.091,60.091,0,0,0-59.512-60.056Zm-7.586,133.933a11.912,11.912,0,0,1-11.078-7.649H654.861a3.987,3.987,0,0,1-3.754-2.715l-3.874-11.672-12.259,42.834a3.966,3.966,0,0,1-3.8,2.863h-.247a3.916,3.916,0,0,1-3.676-3.28l-12.633-75.984-9.233,44.962a3.938,3.938,0,0,1-3.825,2.99H583.79a3.952,3.952,0,1,1,0-7.9h14.655l13.078-60.452a3.966,3.966,0,0,1,7.777.325l12.9,77.511L643.189,207.5a3.888,3.888,0,0,1,3.7-2.828h.078a3.945,3.945,0,0,1,3.747,2.715l7.006,21.074h9.6a11.849,11.849,0,1,1,11.255,15.553Z" transform="translate(-187.464 -73.694)" fill="#1b9dff"/>
      </g>
    </g>
  </g>
</svg>
